<svg width="130" height="103" viewBox="0 0 130 103" fill="none" xmlns="http://www.w3.org/2000/svg">
<g opacity="0.13">
<path d="M110.939 33.9641C106.855 41.3041 102.839 48.4861 98.3265 55.1771C93.9989 61.8266 88.8045 67.8698 82.8805 73.1471C77.0406 78.2822 70.1754 82.1167 62.7405 84.3961C55.3761 86.6414 47.496 86.5422 40.1905 84.1121C32.7132 81.4292 26.0434 76.884 20.8115 70.9061C15.3865 64.8022 11.1595 57.7313 8.35147 50.0631C5.51357 42.24 3.56564 34.1221 2.54449 25.8631C1.3995 17.5701 0.844482 9.16908 0.314484 0.778076C0.280487 9.18608 0.265495 17.6061 0.854492 26.0401C1.3325 34.5446 2.76755 42.9681 5.13248 51.1511C7.57876 59.5024 11.5761 67.3184 16.9155 74.1901C22.3719 81.3044 29.5554 86.9069 37.7845 90.4661C42.0279 92.2324 46.5269 93.3073 51.1105 93.6501C55.699 93.966 60.309 93.6235 64.8005 92.6331C73.6708 90.5729 81.9999 86.6452 89.2325 81.1121C96.2816 75.6595 102.571 69.2894 107.932 62.1711C113.307 55.2571 117.996 48.0281 122.576 40.9711L110.939 33.9641Z" fill="#55CBA9"/>
<path d="M129.198 50.958L129.827 15.7401L99.0115 32.8001L129.198 50.958Z" fill="#55CBA9"/>
<path d="M83.8645 90.1601C79.5043 92.5858 74.9112 94.5668 70.1545 96.0731C65.4957 97.5399 60.6613 98.376 55.7805 98.5591C50.9161 98.8032 46.0435 98.2846 41.3395 97.0221C38.9444 96.4324 36.5919 95.681 34.2985 94.7731C33.121 94.3584 31.973 93.8643 30.8625 93.2941C29.7225 92.7681 28.5625 92.2611 27.3795 91.7641C28.3615 92.5591 29.3635 93.3431 30.3885 94.1081C31.3867 94.9135 32.4481 95.6371 33.5625 96.2721C35.7812 97.5962 38.126 98.6962 40.5625 99.5561C43.0055 100.466 45.5315 101.136 48.1045 101.556C49.3885 101.789 50.7045 101.787 52.0045 101.911C52.6565 101.947 53.3045 102.033 53.9605 102.025L55.9205 101.955C61.1328 101.746 66.2641 100.594 71.0655 98.5551C75.8255 96.5936 80.169 93.7446 83.8645 90.1601Z" fill="#1B8567"/>
<path d="M99.9125 42.9831C95.1033 49.4676 89.9394 55.6814 84.4445 61.5961C81.7157 64.5088 78.8336 67.2741 75.8105 69.8801C72.8105 72.5461 69.5425 74.8471 66.2105 77.3221C70.1957 76.1325 73.9735 74.335 77.4105 71.9931C80.8688 69.6693 84.0555 66.9647 86.9105 63.9301C89.7528 60.9065 92.3038 57.6216 94.5295 54.1191C96.7838 50.6476 98.5923 46.9062 99.9125 42.9831Z" fill="#1B8567"/>
</g>
</svg>
