<svg width="52" height="51" viewBox="0 0 52 51" fill="none" xmlns="http://www.w3.org/2000/svg">
<path opacity="0.07" d="M51.4112 25.8851C51.4954 21.267 50.3106 16.7143 47.986 12.7231C47.9458 12.6431 47.8989 12.5667 47.8458 12.4946C45.638 8.77213 42.5143 5.67662 38.7719 3.50276C35.0295 1.32889 30.793 0.149038 26.4657 0.0754738C22.1384 0.0019092 17.8642 1.03708 14.0501 3.08249C10.2359 5.12789 7.00878 8.11544 4.67578 11.7607C4.61746 11.8352 4.5659 11.9146 4.5217 11.9982C2.09911 15.8609 0.764619 20.3061 0.659134 24.8644C0.553648 29.4227 1.68109 33.9249 3.92241 37.8955C3.92151 37.9485 3.90472 37.9952 3.90371 38.0542C3.89874 38.38 3.99586 38.6991 4.18146 38.9669C4.36707 39.2346 4.63184 39.4376 4.93864 39.5472C7.21276 42.9603 10.2811 45.7706 13.8802 47.737C17.4794 49.7034 21.502 50.767 25.6027 50.8367C29.7035 50.9065 33.7599 49.9801 37.4238 48.1372C41.0877 46.2944 44.2498 43.5899 46.6386 40.2561C46.9488 40.1567 47.2202 39.9628 47.4147 39.7016C47.6093 39.4403 47.7173 39.1248 47.7237 38.7992C47.7246 38.7452 47.7145 38.693 47.7114 38.6419C50.0622 34.7965 51.3398 30.3915 51.4112 25.8851V25.8851ZM3.8236 26.6436L10.9086 26.764C10.9521 30.0946 11.4105 33.4069 12.2734 36.6241L6.75643 36.5303C5.01294 33.512 4.00798 30.1243 3.8236 26.6436V26.6436ZM6.78806 14.3104L12.4881 14.4073C11.6265 17.4125 11.1157 20.5074 10.9659 23.6301L3.87688 23.5096C4.15867 20.2659 5.15381 17.1247 6.79108 14.3104L6.78806 14.3104ZM48.2409 24.2638L41.1559 24.1433C41.112 21.0173 40.7067 17.9069 39.9481 14.8741L45.6481 14.971C47.1875 17.8394 48.0736 21.0128 48.2429 24.2638L48.2409 24.2638ZM38.0159 24.0899L27.6259 23.9133L27.7831 14.6673L36.6381 14.8178C37.4957 17.8362 37.9598 20.9527 38.0189 24.09L38.0159 24.0899ZM27.8393 11.5353L27.9768 3.44535C31.0216 4.27633 33.7034 7.33279 35.5303 11.6661L27.8393 11.5353ZM24.8428 3.39207L24.7053 11.4821L17.0123 11.3513C18.9874 7.08362 21.7717 4.11509 24.8429 3.38908L24.8428 3.39207ZM24.652 14.6181L24.4948 23.8641L14.1048 23.6874C14.2695 20.5541 14.8383 17.4551 15.797 14.4675L24.652 14.6181ZM14.0516 26.8214L24.4415 26.9981L24.2744 36.8321L15.6043 36.6847C14.6326 33.4833 14.11 30.1625 14.0516 26.8174L14.0516 26.8214ZM24.2211 39.9661L24.0936 47.4661C21.1912 46.6745 18.6164 43.8559 16.8001 39.8399L24.2211 39.9661ZM27.2276 47.5193L27.3551 40.0193L34.7761 40.1455C32.8234 44.0955 30.1552 46.8249 27.2276 47.5193ZM27.4084 36.8823L27.5756 27.0483L37.9656 27.225C37.7932 30.5648 37.158 33.8645 36.0784 37.0297L27.4084 36.8823ZM41.1056 27.2784L48.1906 27.3988C47.8909 30.8707 46.7741 34.2225 44.9314 37.1802L39.4064 37.0863C40.378 33.8999 40.9488 30.6049 41.1056 27.2774L41.1056 27.2784ZM43.5804 11.7999L38.9804 11.7217C38.1774 9.45625 37.0452 7.32135 35.6201 5.3858C38.7332 6.88176 41.4578 9.07815 43.5803 11.8029L43.5804 11.7999ZM17.1411 5.07166C15.651 6.95767 14.4469 9.05284 13.5674 11.2897L8.96736 11.2115C11.1819 8.56141 13.9798 6.45993 17.1421 5.07167L17.1411 5.07166ZM8.97317 39.7029L13.3182 39.7767C14.096 41.8264 15.1512 43.7598 16.4544 45.5227C13.5729 44.1404 11.0217 42.1558 8.97317 39.7029V39.7029ZM34.9284 45.8367C36.2908 44.1191 37.4111 42.2228 38.2581 40.2007L42.6031 40.2746C40.4721 42.6562 37.855 44.5529 34.9284 45.8367V45.8367Z" fill="#242993"/>
</svg>
