<svg width="14" height="15" viewBox="0 0 14 15" fill="none" xmlns="http://www.w3.org/2000/svg">
<g opacity="0.08">
<path d="M12.6958 14.415C12.5338 14.4158 12.3731 14.3845 12.2231 14.3231C12.0731 14.2617 11.9368 14.1713 11.8218 14.057L0.469816 2.70298C0.247636 2.46835 0.125842 2.15622 0.130339 1.83311C0.134835 1.51 0.265271 1.20149 0.493895 0.973124C0.722518 0.744761 1.03126 0.614581 1.35437 0.610453C1.67748 0.606325 1.98943 0.728581 2.22381 0.951029L13.5758 12.298C13.7504 12.4711 13.8694 12.6922 13.9178 12.9332C13.9662 13.1742 13.9418 13.4242 13.8476 13.6512C13.7534 13.8783 13.5938 14.0722 13.389 14.2082C13.1843 14.3442 12.9436 14.4163 12.6978 14.415H12.6958Z" fill="#242993"/>
<path d="M1.3438 14.4151C1.09807 14.4161 0.857589 14.344 0.652977 14.2079C0.448365 14.0718 0.288896 13.8779 0.194847 13.6509C0.100798 13.4239 0.0764367 13.1739 0.12487 12.933C0.173304 12.6921 0.292342 12.4711 0.46682 12.298L11.8198 0.951087C11.9342 0.833105 12.0709 0.738999 12.222 0.674354C12.3731 0.609708 12.5355 0.575774 12.6998 0.5745C12.8641 0.573226 13.027 0.604612 13.1791 0.666907C13.3312 0.729203 13.4693 0.82122 13.5855 0.937415C13.7017 1.05361 13.7936 1.19173 13.8559 1.34379C13.9182 1.49585 13.9496 1.65872 13.9484 1.82304C13.9471 1.98735 13.9131 2.14987 13.8485 2.30094C13.7839 2.45202 13.6898 2.58866 13.5718 2.70304L2.21981 14.0561C2.10458 14.1706 1.96791 14.2612 1.81759 14.3228C1.66727 14.3844 1.50625 14.4158 1.3438 14.4151Z" fill="#242993"/>
</g>
</svg>
