<svg width="76" height="88" viewBox="0 0 76 88" fill="none" xmlns="http://www.w3.org/2000/svg">
<path d="M57.224 30.7441C53.822 37.3939 50.4791 43.9005 46.6741 49.986C43.0346 56.0292 38.606 61.5605 33.5051 66.4336C28.4747 71.1773 22.4931 74.7969 15.957 77.0525C9.48254 79.2765 2.47683 79.433 -4.09054 77.5004C-10.8172 75.349 -16.8843 71.5181 -21.7187 66.3699C-26.7289 61.1141 -30.7045 54.9619 -33.4378 48.2348C-36.2023 41.3707 -38.1851 34.217 -39.3486 26.9091C-40.6233 19.5761 -41.3758 12.1269 -42.1089 4.6869C-41.8779 12.1594 -41.6306 19.6423 -40.8452 27.1185C-40.155 34.6597 -38.617 42.0992 -36.2605 49.296C-33.8292 56.6426 -30.0358 63.4656 -25.0787 69.408C-20.0092 75.5605 -13.452 80.3161 -6.02899 83.2236C-2.2031 84.6619 1.82856 85.4778 5.91263 85.6403C9.99982 85.7801 14.086 85.3341 18.0468 84.316C25.8655 82.2085 33.145 78.4581 39.3999 73.3151C45.4958 68.2501 50.8875 62.3932 55.4319 55.9C59.9934 49.5889 63.9365 43.0193 67.7879 36.602L57.224 30.7441Z" fill="#001D2A"/>
<path d="M73.9766 45.2813L73.4424 13.9659L46.5875 30.0829L73.9766 45.2813Z" fill="#001D2A"/>
</svg>
