<svg width="44" height="82" viewBox="0 0 44 82" fill="none" xmlns="http://www.w3.org/2000/svg">
<path opacity="0.14" d="M59.671 6.43207C49.945 0.624066 39.891 -0.936922 30.598 1.91208C20.079 5.13708 11.3251 13.6731 5.27907 26.5981C2.29578 33.1847 0.738339 40.3274 0.709001 47.5581C0.702001 55.9881 2.91603 63.4201 7.10903 69.0501C14.109 78.4501 25.145 81.1201 35.431 81.1201C38.8502 81.1061 42.2638 80.8407 45.6441 80.3261C46.3018 80.2282 46.8937 79.8731 47.2896 79.3388C47.6855 78.8045 47.8529 78.1348 47.755 77.4771C47.6572 76.8193 47.302 76.2274 46.7677 75.8315C46.2334 75.4357 45.5638 75.2682 44.906 75.3661C29.099 77.7111 17.42 74.4911 11.131 66.0521C3.561 55.8931 4.74201 39.5821 9.82301 28.7221C15.251 17.1151 22.944 9.50308 32.068 6.70508C39.968 4.28308 48.626 5.67707 57.099 10.7341C74.689 21.2401 60.154 53.3701 60.005 53.6941C59.9612 53.7918 59.9232 53.892 59.891 53.9941C58.824 57.3871 55.099 60.2521 51.754 60.2521C50.027 60.2521 48.82 59.8901 48.354 59.2311C47.9294 58.255 47.9086 57.1505 48.296 56.1591C48.309 56.1211 48.3231 56.0821 48.3351 56.0451L50.506 49.3501C50.613 49.0561 50.716 48.7581 50.806 48.4591L54.947 35.9461C55.047 35.6341 55.132 35.3251 55.2121 35.0131L58.359 25.4281C58.5621 24.8288 58.5305 24.1749 58.2704 23.5981C58.0103 23.0213 57.5412 22.5646 56.9577 22.32C56.3741 22.0754 55.7196 22.0612 55.126 22.2802C54.5324 22.4992 54.0439 22.9351 53.759 23.5001C53.58 23.2081 53.3931 22.9221 53.1891 22.6451C51.8465 20.8806 50.099 19.4651 48.0944 18.5179C46.0897 17.5708 43.8866 17.1198 41.671 17.2031C31.912 17.2031 22.0901 24.6231 19.3111 34.0941L15.536 46.9641C14.112 51.8171 14.7861 56.5911 17.3831 60.0641C18.7073 61.7592 20.4155 63.1152 22.3668 64.0204C24.3182 64.9255 26.4567 65.3539 28.6061 65.2701C33.9724 65.116 39.1193 63.1062 43.1701 59.5831C43.3506 60.4752 43.708 61.3222 44.2211 62.0741C45.6871 64.1951 48.2211 65.2741 51.7511 65.2741C57.2241 65.2741 62.8421 61.0631 64.6211 55.6591C67.2906 49.5235 69.1723 43.0745 70.2211 36.4661C72.3421 22.2041 68.692 11.8191 59.671 6.43207ZM28.608 60.2511C27.239 60.3244 25.872 60.0727 24.6189 59.5165C23.3658 58.9603 22.2622 58.1155 21.3981 57.0511C19.7331 54.8261 19.36 51.7421 20.349 48.3711L24.1261 35.5021C26.2741 28.1741 34.146 22.2131 41.672 22.2131C43.0994 22.1406 44.5233 22.4115 45.8244 23.0031C47.1254 23.5947 48.2655 24.4897 49.1491 25.6131C49.944 26.8017 50.4634 28.1529 50.6693 29.568C50.8752 30.983 50.7623 32.4262 50.339 33.7921L45.9391 47.1921C43.5561 54.2971 35.6921 60.2511 28.608 60.2511Z" fill="#F49E39"/>
</svg>
