<svg width="37" height="37" viewBox="0 0 37 37" fill="none" xmlns="http://www.w3.org/2000/svg">
<path opacity="0.14" d="M36.7121 18.2559C36.7155 14.9339 35.8076 11.6747 34.0871 8.83289C34.0586 8.77607 34.0252 8.72188 33.9872 8.6709C32.3538 6.02073 30.0693 3.8327 27.3512 2.31506C24.6331 0.797424 21.5717 0.000732422 18.4586 0.000732422C15.3455 0.000732422 12.2843 0.797424 9.56614 2.31506C6.84802 3.8327 4.56355 6.02073 2.93015 8.6709C2.88875 8.7243 2.85255 8.78159 2.82212 8.84192C1.12757 11.6493 0.222555 14.8621 0.20249 18.1412C0.182424 21.4203 1.04804 24.644 2.7081 27.4719C2.7081 27.5119 2.69712 27.5469 2.69712 27.5859C2.69729 27.8206 2.77081 28.0493 2.90745 28.2401C3.04408 28.4309 3.23696 28.5742 3.45908 28.6499C5.13657 31.0766 7.37784 33.0601 9.99045 34.4302C12.6031 35.8002 15.509 36.516 18.4591 36.516C21.4091 36.516 24.3152 35.8002 26.9278 34.4302C29.5404 33.0601 31.7816 31.0766 33.4591 28.6499C33.6814 28.5744 33.8745 28.4312 34.0113 28.2404C34.1482 28.0496 34.2219 27.8207 34.2221 27.5859C34.2221 27.5489 34.2142 27.5119 34.2112 27.4739C35.8531 24.6797 36.7166 21.4967 36.7121 18.2559ZM2.49717 19.3839H7.59714C7.66887 21.7791 8.03836 24.1559 8.69712 26.4598H4.72312C3.4336 24.3097 2.6709 21.8851 2.49717 19.3839ZM4.47812 10.4769H8.5781C7.99564 12.649 7.66618 14.8812 7.59617 17.1289H2.49619C2.65852 14.7926 3.33527 12.5211 4.47812 10.4769ZM34.4132 17.1289H29.3131C29.2436 14.8811 28.9141 12.6489 28.3312 10.4769H32.4311C33.5744 12.521 34.2516 14.7925 34.4142 17.1289H34.4132ZM27.0571 17.1289H19.5821V10.4769H25.9521C26.606 12.6373 26.9781 14.8732 27.0592 17.1289H27.0571ZM19.5821 8.22095V2.40088C21.7821 2.96188 23.7491 5.12595 25.1151 8.22095H19.5821ZM17.3271 2.40088V8.22095H11.7932C13.1592 5.12595 15.1291 2.96188 17.3281 2.40088H17.3271ZM17.3271 10.4769V17.1289H9.85215C9.93133 14.8735 10.301 12.6378 10.9521 10.4769H17.3271ZM9.85215 19.3839H17.3271V26.4598H11.0902C10.3529 24.1697 9.93651 21.7884 9.85312 19.3839H9.85215ZM17.3271 28.7139V34.1139C15.2271 33.5779 13.3441 31.5829 11.9881 28.7139H17.3271ZM19.5821 34.1139V28.7139H24.9211C23.5661 31.5799 21.6801 33.5748 19.5831 34.1108L19.5821 34.1139ZM19.5821 26.4629V19.3868H27.0571C26.9737 21.7913 26.5575 24.1727 25.8202 26.4629H19.5821ZM29.3161 19.3868H34.4161C34.2427 21.8879 33.4803 24.3126 32.1911 26.4629H28.2171C28.8761 24.158 29.2453 21.7801 29.3161 19.3839V19.3868ZM30.9071 8.22388H27.5952C26.9902 6.60482 26.1498 5.08376 25.1012 3.70984C27.359 4.74474 29.3463 6.28891 30.9071 8.22095V8.22388ZM11.8071 3.70984C10.7583 5.08367 9.91791 6.60475 9.31309 8.22388H6.0001C7.56157 6.28935 9.55037 4.74323 11.8102 3.70691L11.8071 3.70984ZM6.35508 28.7179H9.48118C10.0653 30.182 10.8479 31.559 11.8071 32.8099C9.71907 31.8499 7.86127 30.4531 6.35911 28.7139L6.35508 28.7179ZM25.0971 32.8099C26.056 31.5588 26.8386 30.1819 27.4231 28.7179H30.5492C29.0459 30.454 27.1883 31.8479 25.1012 32.8059L25.0971 32.8099Z" fill="#F49E39"/>
</svg>
