<svg width="22" height="21" viewBox="0 0 22 21" fill="none" xmlns="http://www.w3.org/2000/svg">
<g opacity="0.14">
<path d="M19.1428 20.8782C18.8997 20.8794 18.6587 20.8325 18.4337 20.7404C18.2088 20.6482 18.0042 20.5126 17.8318 20.3412L0.813812 3.32312C0.465451 2.97449 0.269832 2.50176 0.27002 2.00891C0.270207 1.51607 0.466192 1.04343 0.814819 0.695068C1.16345 0.346707 1.63618 0.15118 2.12903 0.151367C2.62187 0.151555 3.09445 0.34754 3.44281 0.696167L20.4588 17.7051C20.7207 17.9644 20.8994 18.2959 20.9721 18.6572C21.0448 19.0185 21.0082 19.3933 20.867 19.7338C20.7258 20.0742 20.4864 20.3649 20.1793 20.5687C19.8722 20.7725 19.5114 20.8803 19.1428 20.8782Z" fill="#F49E39"/>
<path d="M2.12882 20.8782C1.76044 20.8799 1.39986 20.7718 1.09309 20.5679C0.786313 20.3639 0.547239 20.0733 0.40629 19.7329C0.26534 19.3926 0.228917 19.0179 0.301675 18.6567C0.374434 18.2956 0.553079 17.9643 0.814828 17.7051L17.8328 0.696167C18.1812 0.347805 18.6537 0.1521 19.1463 0.1521C19.639 0.1521 20.1115 0.347805 20.4598 0.696167C20.8082 1.04453 21.0039 1.51699 21.0039 2.00964C21.0039 2.5023 20.8082 2.97476 20.4598 3.32312L3.44383 20.3412C3.27079 20.5129 3.06555 20.6487 2.83988 20.7408C2.61422 20.833 2.37257 20.8797 2.12882 20.8782Z" fill="#F49E39"/>
</g>
</svg>
